<?xml version="1.0" standalone="no"?>
<!DOCTYPE svg PUBLIC "-//W3C//DTD SVG 20010904//EN"
 "http://www.w3.org/TR/2001/REC-SVG-20010904/DTD/svg10.dtd">
<svg version="1.0" xmlns="http://www.w3.org/2000/svg"
 width="500.000000pt" height="500.000000pt" viewBox="0 0 500.000000 500.000000"
 preserveAspectRatio="xMidYMid meet">
<metadata>
Created by potrace 1.14, written by Peter Selinger 2001-2017
</metadata>
<g transform="translate(0.000000,500.000000) scale(0.100000,-0.100000)"
fill="#000000" stroke="none">
<path d="M2537 4583 c-3 -2 -38 -6 -78 -8 -40 -2 -75 -8 -78 -12 -3 -5 -44
-10 -91 -12 -168 -5 -200 -9 -282 -34 -46 -14 -114 -34 -153 -45 -38 -11 -79
-23 -90 -28 -17 -7 -18 -6 -7 8 11 14 10 16 -7 11 -12 -3 -19 -8 -17 -12 10
-16 -15 -34 -69 -53 -66 -22 -165 -82 -165 -100 0 -6 -3 -9 -6 -5 -8 7 -92
-38 -121 -65 -13 -12 -32 -22 -43 -23 -11 -1 -40 -20 -65 -43 -25 -23 -49 -42
-52 -42 -4 0 -17 -10 -28 -22 -11 -13 -42 -39 -70 -58 -70 -49 -305 -292 -305
-316 0 -5 -20 -30 -44 -56 -25 -26 -57 -69 -72 -95 -15 -26 -41 -67 -57 -90
-26 -37 -29 -46 -19 -68 6 -13 7 -27 2 -30 -5 -3 -14 -22 -21 -43 -6 -20 -15
-39 -19 -42 -24 -17 -100 -266 -100 -329 0 -14 -7 -48 -16 -76 -18 -60 -24
-99 -30 -185 -8 -146 -14 -188 -33 -244 -18 -51 -19 -61 -6 -78 11 -17 11 -23
1 -34 -14 -14 -12 -37 17 -161 8 -34 12 -65 8 -69 -3 -4 -1 -4 6 0 14 8 20
-11 27 -90 6 -59 38 -161 73 -228 9 -17 17 -42 19 -55 2 -23 30 -83 133 -288
20 -40 50 -88 66 -106 17 -18 37 -46 45 -62 8 -16 44 -61 80 -101 36 -40 87
-101 114 -135 85 -105 355 -329 399 -329 10 0 32 -7 49 -16 16 -9 27 -11 24
-5 -9 14 17 14 49 -1 16 -7 21 -14 14 -19 -15 -9 105 -79 202 -117 88 -35 250
-88 316 -103 108 -24 182 -36 177 -28 -3 5 11 9 31 9 23 0 34 -4 30 -11 -5 -7
8 -9 41 -4 27 4 44 3 38 -2 -7 -4 43 -9 110 -10 70 -1 123 3 127 9 3 5 35 11
70 14 175 11 446 77 469 113 3 7 20 11 36 10 45 -3 143 30 202 67 29 19 57 34
63 34 32 0 330 195 336 220 3 10 22 26 44 35 21 10 39 22 39 27 0 5 36 46 79
91 96 99 111 117 166 187 94 122 277 432 280 475 1 17 15 55 29 84 15 29 25
55 23 58 -3 2 2 25 10 49 8 25 13 48 9 51 -8 8 -74 -49 -81 -72 -4 -11 -25
-55 -46 -99 -21 -43 -36 -82 -33 -87 3 -5 1 -9 -3 -9 -5 0 -13 -13 -19 -29
-20 -51 -121 -214 -173 -279 -50 -61 -61 -79 -41 -67 6 3 10 2 10 -3 0 -5 -11
-14 -25 -20 -14 -6 -25 -17 -25 -25 0 -7 -8 -19 -17 -28 -10 -8 -29 -29 -43
-45 -14 -16 -41 -42 -60 -58 -19 -16 -35 -32 -35 -35 1 -17 -56 -57 -69 -48
-2 1 -37 -29 -77 -68 -41 -38 -121 -101 -179 -139 -58 -38 -127 -84 -155 -102
-27 -18 -81 -45 -120 -60 -38 -15 -79 -33 -90 -40 -11 -8 -35 -14 -54 -14 -19
0 -56 -13 -87 -31 -30 -17 -54 -28 -54 -24 0 3 -14 -2 -31 -11 -24 -12 -38
-13 -54 -6 -15 7 -46 5 -106 -8 -46 -10 -75 -18 -65 -19 26 -1 15 -11 -20 -17
-16 -3 -30 -7 -32 -8 -1 -2 -29 2 -62 9 -32 7 -97 13 -143 14 -47 1 -98 4
-114 7 -32 6 -21 -11 12 -19 11 -3 -14 -5 -55 -5 -41 0 -69 2 -62 5 25 10 -9
33 -49 33 -21 0 -61 9 -89 20 -54 21 -85 26 -75 11 9 -16 -64 9 -102 35 -20
13 -44 24 -55 24 -10 0 -36 9 -58 20 -45 23 -54 25 -44 9 5 -8 1 -8 -14 0 -11
6 -30 11 -41 11 -11 0 -26 7 -34 15 -8 7 -28 17 -43 20 -54 13 -64 16 -60 24
7 11 -117 81 -142 81 -23 0 -64 38 -56 52 3 4 -14 17 -38 27 -38 16 -123 81
-107 81 10 0 -104 112 -154 153 -26 21 -45 43 -41 48 3 5 0 8 -7 7 -15 -4
-132 142 -158 197 -11 22 -20 34 -20 28 -1 -7 -5 -13 -9 -13 -10 0 -45 60 -39
67 3 2 -10 25 -29 50 -19 24 -35 49 -35 54 -1 5 -2 17 -3 27 -3 24 -55 129
-72 143 -8 6 -14 19 -14 28 0 9 -14 36 -30 60 -17 24 -30 55 -30 68 0 13 -7
37 -15 52 -8 16 -12 30 -10 33 5 5 -19 88 -33 115 -5 10 -12 32 -15 48 l-6 30
14 -30 c19 -40 18 -13 0 55 -16 57 -26 230 -13 230 4 0 4 10 1 23 -14 59 -14
77 3 108 13 27 14 31 2 22 -13 -11 -14 1 -10 100 2 61 7 113 11 115 4 1 5 28
3 60 -2 42 3 73 17 111 12 28 21 61 21 71 0 11 4 20 9 20 5 0 15 33 21 73 7
39 18 82 26 94 8 12 10 24 5 28 -6 3 -6 18 -1 35 6 20 5 30 -2 30 -13 0 -1 52
15 62 20 12 29 -4 11 -23 -13 -15 -15 -24 -7 -41 l10 -23 8 25 c4 14 11 27 15
30 20 14 72 114 91 176 28 91 67 164 85 157 11 -4 10 -10 -5 -32 -24 -34 -53
-91 -47 -91 3 0 13 15 22 33 9 17 28 44 42 60 14 15 27 34 28 42 2 15 35 67
65 100 59 68 288 282 303 283 8 0 82 106 89 127 6 18 39 -18 34 -37 -6 -23 2
-22 33 2 14 11 19 20 13 20 -31 0 -9 17 37 29 28 7 50 19 50 26 0 20 27 39 33
23 3 -9 12 -6 30 10 15 15 33 22 44 19 22 -7 62 13 153 77 67 47 71 48 89 32
18 -16 21 -15 77 35 61 53 91 70 134 74 14 1 34 6 45 10 22 7 -3 -10 -105 -74
-65 -41 -65 -44 0 -42 49 1 71 8 145 42 l20 10 -20 -5 c-11 -2 -41 -11 -67
-19 -27 -8 -45 -11 -42 -6 10 17 82 48 126 55 38 7 42 6 30 -8 -11 -14 -7 -15
40 -11 107 10 162 11 185 2 23 -9 23 -8 8 21 -28 55 -22 64 39 56 30 -3 67
-11 81 -16 l27 -10 -22 -18 c-21 -17 -20 -18 65 -19 47 0 89 -3 92 -6 3 -4 14
-2 24 3 25 14 90 21 103 12 6 -5 49 -19 96 -32 47 -13 105 -32 130 -43 28 -13
62 -20 91 -18 56 3 158 -25 182 -50 15 -16 103 -49 132 -49 17 0 95 -58 95
-70 0 -16 -30 -12 -58 8 -38 26 -52 34 -52 28 0 -2 40 -29 88 -60 49 -31 97
-65 108 -77 10 -11 32 -28 49 -37 28 -14 29 -14 16 1 -22 28 2 19 68 -23 34
-22 67 -52 74 -67 13 -31 38 -54 50 -46 10 6 48 -19 83 -54 15 -16 21 -19 13
-8 -7 11 -30 36 -51 56 -20 21 -34 40 -30 44 3 3 -1 3 -11 -1 -10 -3 -17 -1
-17 5 0 7 -22 34 -50 62 -27 27 -50 45 -50 40 0 -13 -92 42 -111 66 -12 14
-11 15 11 9 19 -6 21 -5 10 3 -8 6 -23 8 -32 5 -12 -4 -22 3 -30 21 -21 46
-194 143 -388 215 -19 7 -40 17 -47 22 -6 5 -24 11 -39 14 -16 3 -31 10 -35
15 -3 6 -8 10 -10 9 -2 -1 -11 1 -19 4 -8 2 -40 10 -70 17 -30 7 -64 18 -75
25 -11 7 -49 18 -85 25 -36 6 -72 15 -80 19 -29 15 -252 35 -263 23z"/>
<path d="M1812 4353 c-18 -8 -31 -18 -28 -20 5 -5 66 25 66 32 0 7 -1 7 -38
-12z"/>
<path d="M3175 4362 c6 -6 24 -13 40 -17 21 -4 25 -3 15 3 -24 15 -67 26 -55
14z"/>
<path d="M3260 4316 c0 -2 9 -6 20 -9 11 -3 18 -1 14 4 -5 9 -34 13 -34 5z"/>
<path d="M1320 4131 c0 -5 -3 -17 -7 -27 -6 -16 -4 -16 19 2 17 13 22 21 14
26 -15 10 -26 10 -26 -1z"/>
<path d="M2532 4113 c-26 -70 -94 -229 -102 -236 -4 -5 -11 12 -15 38 -3 26
-9 57 -11 68 -7 32 -24 131 -24 140 0 4 -9 7 -20 7 -23 0 -23 0 -10 -71 6 -30
13 -65 15 -79 14 -80 47 -235 50 -239 3 -2 9 9 15 25 19 50 103 259 107 263 7
9 15 -10 59 -140 25 -74 49 -140 53 -148 5 -8 25 57 50 160 23 96 44 184 47
197 5 17 2 22 -14 22 -17 0 -23 -13 -42 -92 -12 -51 -26 -111 -32 -133 l-10
-40 -50 140 c-27 76 -50 141 -52 143 -2 1 -8 -10 -14 -25z"/>
<path d="M2982 3989 c-146 -74 -129 -280 28 -346 66 -27 173 11 217 79 23 34
28 52 27 104 0 55 -4 68 -30 100 -49 61 -78 77 -141 81 -45 3 -68 -1 -101 -18z
m175 -44 c61 -40 78 -117 42 -191 -51 -107 -206 -106 -261 0 -72 141 85 278
219 191z"/>
<path d="M1738 3933 c-49 -26 -88 -51 -88 -56 0 -10 153 -302 165 -316 4 -3
174 85 187 98 4 3 3 12 -1 20 -7 10 -25 4 -83 -28 -41 -23 -77 -41 -80 -41 -9
0 -58 90 -58 104 0 7 30 28 66 47 64 33 84 52 70 67 -4 4 -41 -11 -81 -32 -41
-20 -78 -35 -83 -32 -10 6 -57 105 -51 109 2 2 36 19 74 39 64 34 86 57 60 64
-5 2 -49 -17 -97 -43z"/>
<path d="M3955 3900 c10 -11 20 -20 23 -20 3 0 -3 9 -13 20 -10 11 -20 20 -23
20 -3 0 3 -9 13 -20z"/>
<path d="M4012 3793 c8 -10 27 -32 42 -49 14 -17 32 -39 40 -49 16 -22 36 -12
36 18 0 22 1 22 20 -3 11 -14 20 -20 20 -14 0 13 -26 37 -58 53 -22 12 -23 11
-12 -9 17 -33 5 -35 -15 -3 -19 31 -65 72 -79 73 -5 0 -2 -8 6 -17z"/>
<path d="M3434 3683 c-44 -48 -98 -107 -121 -132 -46 -50 -50 -59 -29 -67 8
-3 33 15 61 45 45 48 49 50 66 35 10 -9 16 -25 13 -37 -2 -12 -7 -53 -10 -92
-5 -64 -4 -71 15 -83 20 -12 21 -10 23 45 0 32 2 63 3 68 2 6 3 20 4 33 1 20
3 21 23 11 28 -15 75 -14 107 3 35 19 61 82 50 122 -8 27 -103 135 -120 136
-4 0 -42 -39 -85 -87z m135 -8 c36 -38 42 -50 37 -73 -8 -32 -49 -72 -75 -72
-27 0 -112 70 -103 85 10 18 86 104 92 104 3 0 25 -20 49 -44z"/>
<path d="M1422 3718 c-10 -10 0 -25 45 -70 l57 -57 -57 -60 -56 -59 -60 59
c-51 50 -61 56 -72 43 -11 -13 7 -35 117 -145 113 -113 130 -127 143 -114 13
13 8 21 -43 71 -65 63 -66 53 18 135 45 44 40 45 116 -36 33 -34 40 -38 54
-26 15 13 3 28 -111 142 -70 71 -130 129 -133 129 -4 0 -11 -5 -18 -12z"/>
<path d="M4210 3615 c14 -17 13 -18 -3 -12 -17 6 -17 6 0 -23 18 -30 25 -35
36 -24 8 8 -18 60 -35 70 -8 5 -7 0 2 -11z"/>
<path d="M4285 3490 c9 -16 18 -30 21 -30 2 0 -2 14 -11 30 -9 17 -18 30 -21
30 -2 0 2 -13 11 -30z"/>
<path d="M4312 3495 c4 -6 11 -22 16 -35 5 -13 11 -19 15 -14 3 6 -4 21 -16
35 -12 14 -19 20 -15 14z"/>
<path d="M3682 3345 c-79 -51 -147 -96 -153 -102 -5 -5 7 -34 33 -76 46 -71
46 -71 66 -58 11 6 6 20 -22 64 l-35 55 130 84 c73 45 134 89 137 96 14 38
-26 22 -156 -63z"/>
<path d="M4291 3410 c14 -31 19 -36 19 -24 0 6 -7 19 -16 30 -14 18 -14 18 -3
-6z"/>
<path d="M1094 3313 c-64 -116 -65 -116 -51 -125 18 -11 27 -10 27 5 0 6 9 23
19 36 l19 24 58 -33 c33 -18 84 -47 114 -63 30 -16 65 -36 78 -44 24 -15 52
-12 52 6 0 8 -129 85 -237 141 -47 24 -51 34 -27 68 16 23 13 52 -5 52 -5 0
-26 -30 -47 -67z"/>
<path d="M4382 3185 c0 -16 2 -22 5 -12 2 9 2 23 0 30 -3 6 -5 -1 -5 -18z"/>
<path d="M4446 3147 c3 -10 9 -15 12 -12 3 3 0 11 -7 18 -10 9 -11 8 -5 -6z"/>
<path d="M4420 3111 c0 -5 5 -13 10 -16 6 -3 10 -2 10 4 0 5 -4 13 -10 16 -5
3 -10 2 -10 -4z"/>
<path d="M3843 3046 c-137 -40 -173 -55 -173 -68 0 -38 44 -133 77 -164 39
-38 81 -53 136 -48 134 12 198 130 151 275 l-19 56 -172 -51z m162 -47 c21
-82 -3 -147 -67 -180 -87 -45 -176 -3 -211 99 -18 52 -23 48 127 91 60 17 112
33 115 36 12 13 26 -5 36 -46z"/>
<path d="M2891 2996 c-17 -6 -90 -67 -162 -136 -72 -69 -137 -128 -143 -132
-7 -4 -144 29 -306 72 -162 44 -301 80 -309 80 -8 0 -35 -20 -61 -44 l-48 -45
242 -137 c132 -75 243 -139 246 -141 3 -3 -22 -30 -55 -60 -33 -31 -93 -87
-134 -126 l-75 -69 -45 6 c-129 19 -126 19 -160 -9 -17 -15 -30 -32 -28 -38 2
-6 48 -38 102 -71 l98 -61 51 -95 c71 -134 63 -127 103 -88 l34 33 -7 75 c-3
41 -8 78 -11 82 -2 4 5 15 15 25 83 79 213 202 233 221 l26 23 40 -83 c22 -46
77 -160 123 -255 l83 -172 49 40 c54 46 55 51 33 154 -9 39 -17 82 -20 97 -3
14 -21 107 -40 205 -20 98 -37 189 -40 202 -3 17 4 32 27 53 17 16 81 75 141
131 143 132 160 174 100 239 -30 31 -60 39 -102 24z"/>
<path d="M4490 2934 c0 -6 9 -19 20 -29 19 -18 20 -17 20 3 0 11 -4 24 -10 27
-5 3 -10 0 -10 -7 0 -9 -3 -9 -10 2 -5 8 -10 10 -10 4z"/>
<path d="M4512 2830 c0 -14 2 -19 5 -12 2 6 2 18 0 25 -3 6 -5 1 -5 -13z"/>
<path d="M889 2708 c-1 -18 -3 -42 -4 -53 -7 -53 -8 -125 -3 -131 7 -7 28 -9
178 -19 186 -12 183 -12 186 8 2 13 -5 17 -29 19 -18 1 -41 3 -52 4 -11 1 -34
2 -52 3 l-32 1 5 91 c4 81 3 90 -12 87 -19 -3 -22 -14 -25 -97 -1 -31 -4 -60
-6 -66 -4 -13 -116 -6 -125 8 -3 5 -5 22 -3 36 12 98 10 136 -7 139 -14 3 -18
-4 -19 -30z"/>
<path d="M4494 2639 c-4 -8 -3 -9 4 -5 8 5 12 -4 12 -28 0 -19 3 -37 8 -40 4
-2 6 13 4 35 -4 41 -16 57 -28 38z"/>
<path d="M4523 2510 c0 -25 2 -35 4 -22 2 12 2 32 0 45 -2 12 -4 2 -4 -23z"/>
<path d="M3763 2398 c-9 -15 -11 -25 -19 -100 -8 -69 7 -113 47 -133 41 -22
84 -18 115 8 l27 23 23 -23 c50 -50 134 -15 148 61 18 98 18 116 -1 117 -10 0
-29 2 -43 5 -22 4 -170 28 -244 40 -16 3 -33 7 -37 10 -4 2 -11 -1 -16 -8z
m134 -54 c31 -6 32 -8 27 -43 -12 -84 -32 -111 -79 -111 -46 0 -70 30 -67 87
1 26 4 55 8 65 6 20 13 20 111 2z m175 -30 c10 -6 -2 -76 -18 -101 -17 -27
-65 -31 -84 -8 -13 16 -16 71 -5 105 6 20 11 21 53 15 26 -4 50 -9 54 -11z"/>
<path d="M1046 2315 c-117 -40 -161 -184 -89 -287 94 -136 316 -80 337 85 17
139 -116 247 -248 202z m117 -39 c78 -32 113 -116 81 -194 -28 -66 -61 -87
-139 -87 -59 0 -67 3 -99 34 -55 54 -64 128 -22 192 41 62 112 84 179 55z"/>
<path d="M530 2292 c0 -10 -5 -23 -10 -28 -7 -7 -5 -17 5 -30 13 -18 14 -15
15 29 0 26 -2 47 -5 47 -3 0 -5 -8 -5 -18z"/>
<path d="M3636 1962 c-33 -67 -44 -98 -37 -105 15 -15 25 -4 65 80 l35 71 55
-26 c31 -14 56 -29 56 -33 0 -4 -15 -40 -34 -81 -25 -52 -31 -75 -23 -80 20
-13 22 -11 56 67 19 41 38 75 43 75 19 0 99 -41 104 -53 2 -7 -11 -45 -31 -85
-19 -40 -35 -74 -35 -76 0 -2 7 -7 16 -10 12 -5 26 16 60 90 25 52 42 99 39
103 -2 5 -26 19 -52 31 -27 13 -98 47 -159 75 l-111 53 -47 -96z"/>
<path d="M4471 2004 c0 -11 3 -14 6 -6 3 7 2 16 -1 19 -3 4 -6 -2 -5 -13z"/>
<path d="M3475 1698 c-58 -32 -95 -86 -97 -145 -1 -29 5 -42 32 -66 41 -37 77
-33 162 18 87 51 138 45 138 -17 0 -41 -47 -89 -95 -97 -45 -7 -57 -28 -22
-37 52 -13 135 52 151 117 16 72 -47 130 -116 107 -18 -6 -45 -19 -60 -30 -41
-28 -97 -50 -116 -44 -82 26 -16 166 78 166 35 0 58 18 43 34 -10 10 -77 6
-98 -6z"/>
<path d="M1485 1583 c-44 -41 -99 -93 -122 -114 l-41 -39 -26 31 c-17 20 -32
29 -42 25 -9 -3 -14 -10 -12 -15 5 -15 139 -151 148 -151 21 0 17 19 -11 51
l-29 34 43 40 c209 191 202 184 187 199 -13 13 -25 6 -95 -61z"/>
<path d="M760 1560 c0 -5 5 -10 11 -10 5 0 7 5 4 10 -3 6 -8 10 -11 10 -2 0
-4 -4 -4 -10z"/>
<path d="M3163 1434 c-7 -3 23 -60 78 -147 77 -123 87 -143 73 -152 -45 -28
-59 -44 -48 -55 9 -9 35 3 103 45 73 46 89 60 80 71 -12 14 -37 7 -69 -22 -14
-11 -27 5 -101 123 -47 75 -89 138 -95 139 -5 1 -14 0 -21 -2z"/>
<path d="M1713 1409 c-119 -59 -137 -225 -33 -312 76 -64 205 -51 265 27 122
160 -52 374 -232 285z m164 -37 c68 -37 90 -146 43 -215 -74 -108 -246 -71
-267 57 -21 131 106 221 224 158z"/>
<path d="M2582 1244 c-46 -19 -72 -53 -72 -94 0 -66 26 -85 150 -110 59 -12
86 -27 91 -50 13 -65 -85 -106 -144 -60 -31 24 -62 27 -53 4 3 -9 6 -17 6 -20
0 -13 67 -34 109 -34 87 0 143 71 115 145 -8 21 -53 44 -101 51 -49 7 -104 24
-120 37 -20 15 -15 62 7 82 24 22 102 35 127 22 10 -6 26 -18 36 -28 16 -17
47 -16 47 1 0 4 -12 19 -26 33 -36 36 -114 46 -172 21z"/>
<path d="M2336 1228 c-3 -13 -9 -43 -13 -68 -9 -49 -14 -51 -77 -38 -75 17
-134 -20 -143 -90 -7 -50 18 -96 61 -114 33 -14 32 -13 91 -23 22 -4 43 -9 48
-12 4 -2 8 1 8 6 1 6 2 14 3 19 8 32 16 72 21 97 2 17 7 48 11 70 3 22 7 45 9
50 1 6 5 28 9 50 4 22 10 48 13 58 3 12 -1 17 -16 17 -13 0 -22 -8 -25 -22z
m-73 -144 c27 -4 44 -11 42 -18 -2 -6 -7 -29 -10 -50 -12 -87 -13 -88 -59 -81
-85 15 -118 56 -89 112 23 45 34 48 116 37z"/>
<path d="M1390 845 c7 -8 17 -15 22 -15 6 0 5 7 -2 15 -7 8 -17 15 -22 15 -6
0 -5 -7 2 -15z"/>
<path d="M2655 520 c3 -5 8 -10 11 -10 2 0 4 5 4 10 0 6 -5 10 -11 10 -5 0 -7
-4 -4 -10z"/>
</g>
</svg>
